<svg xmlns="http://www.w3.org/2000/svg" width="31.37" height="30" viewBox="0 0 31.37 30">
  <g id="Group_80" data-name="Group 80" transform="translate(277.67 -73.87)">
    <path id="Path_192" data-name="Path 192" d="M-274.6,87.153a3,3,0,0,0-2.926-3.073h-.146v1.756a1.311,1.311,0,0,1,1.317,1.317,1.244,1.244,0,0,1-1.171,1.317h-.146v1.756A3.072,3.072,0,0,0-274.6,87.153Z" transform="translate(0 3.788)" fill="#001e50" fill-rule="evenodd"/>
    <path id="Path_193" data-name="Path 193" d="M-246.3,83.459l-1.407-.969V73.87H-253.1a5.582,5.582,0,0,0-5.033,3.167l-2.571,5.357h-.632l-.124-.2-.222-.375-3.056-5.167a5.055,5.055,0,0,0-4.014-2.319c-1.861-.208-5.625-.431-8.9-.431h-.014v1.667h.014c3.208,0,6.889.222,8.722.417a3.344,3.344,0,0,1,2.792,1.569l3,5.069a29.359,29.359,0,0,1-4.139.347H-277.67v1.681h10.389a34.22,34.22,0,0,0,5.056-.472l1.264,2.056-8.25,2.25-1.139,4.542,5.042,1.014,5.972-.944v8.778a.341.341,0,0,1-.347.333h-5.569a.36.36,0,0,1-.347-.333V98.4l-.889.069c-.056,0-4.972.4-11.153.4h-.028v1.667h.014c4.694,0,8.681-.222,10.389-.333v1.667a2,2,0,0,0,2.014,2h5.569a2.012,2.012,0,0,0,2.014-2V95.024H-246.3Zm-13.036,7.481v.472l-5.931.931-3.042-.6.486-1.917,7.778-2.125.167.278.014.028A5.225,5.225,0,0,1-259.337,90.939Zm11.272,2.322h-9.606V90.939a6.8,6.8,0,0,0-.806-3.833l-1.264-2.083-.347-.569-.181-.3h9.671a.881.881,0,0,0,.881-.881.881.881,0,0,0-.881-.882h-8.156l2.206-4.594a3.822,3.822,0,0,1,3.444-2.167h3.632v7.782l1.406.971Z" fill="#001e50" fill-rule="evenodd"/>
  </g>
</svg>
