<svg width="32" height="32" viewBox="0 0 32 32" fill="none" xmlns="http://www.w3.org/2000/svg">
<path fill-rule="evenodd" clip-rule="evenodd" d="M22.6133 0C26.6928 0 30 3.30712 30 7.38667C30 9.34573 29.2217 11.2246 27.8365 12.6098C26.4512 13.9951 24.5724 14.7733 22.6133 14.7733C18.5337 14.7733 15.2266 11.4662 15.2266 7.38667C15.2266 3.30712 18.5337 0 22.6133 0ZM22.6133 1.77333C19.5131 1.77333 17 4.28651 17 7.38667C17 10.4868 19.5131 13 22.6133 13C25.7134 13 28.2266 10.4868 28.2266 7.38667C28.2266 4.28651 25.7134 1.77333 22.6133 1.77333ZM13.336 2.22V0.446667H5.80662L5.62262 0.454667C4.59195 0.548 3.78662 1.41333 3.78662 2.46667V29.532L3.79462 29.7173C3.88795 30.7467 4.75329 31.5533 5.80662 31.5533H26.2053L26.3906 31.5453C27.42 31.452 28.2266 30.5867 28.2266 29.532V17.5573H26.4533V29.532L26.44 29.6107C26.408 29.7093 26.3146 29.78 26.2053 29.78H5.80662L5.72795 29.7667C5.63062 29.7347 5.55995 29.6413 5.55995 29.532V2.46667L5.57195 2.388C5.60395 2.29067 5.69729 2.22 5.80662 2.22H13.336ZM22.2266 24.8867H9.78662V23.1133H22.2266V24.8867ZM19.56 19.5533H9.78662V17.78H19.56V19.5533ZM23.3733 3.2L23.403 7.02022L26.364 9.09355L25.3469 10.5462L23.1665 9.05269L21.6 8.14207V3.2H23.3733Z" fill="#001E50"/>
</svg>
