<svg width="41" height="40" viewBox="0 0 41 40" fill="none" xmlns="http://www.w3.org/2000/svg">
<path d="M21.0726 9.14551C14.7617 9.14551 9.64514 14.2621 9.64514 20.5729C9.64514 26.2758 13.8234 31.0026 19.2874 31.8632V23.8769H16.3846V20.5729H19.2874V18.0552C19.2874 15.1889 20.9937 13.6084 23.6029 13.6084C24.8531 13.6084 26.1629 13.8312 26.1629 13.8312V16.6415H24.7183C23.3011 16.6415 22.8577 17.5238 22.8577 18.4278V20.5707H26.0246L25.5183 23.8747H22.8577V31.8609C28.3217 31.0049 32.5 26.2769 32.5 20.5729C32.5 14.2621 27.3834 9.14551 21.0726 9.14551V9.14551Z" fill="black"/>
<circle cx="20.5" cy="20" r="19.5" stroke="#96A3A8"/>
</svg>
