<svg width="48" height="48" viewBox="0 0 48 48" fill="none" xmlns="http://www.w3.org/2000/svg">
<path fill-rule="evenodd" clip-rule="evenodd" d="M48 24C48 37.2857 37.2857 48 24 48C10.7143 48 0 37.2857 0 24C0 10.7143 10.7143 0 24 0C37.2857 0 48 10.7143 48 24ZM23.8095 18.3619C23.8476 18.4381 23.8857 18.5143 24 18.5143C24.1143 18.5143 24.1524 18.4381 24.1905 18.3619C24.2095 18.3238 24.2286 18.2857 24.2571 18.2571L30.8571 4.02857C28.7143 3.25714 26.4 2.82857 24 2.82857C21.6 2.82857 19.2857 3.25714 17.1429 4.02857L23.7429 18.2571C23.7714 18.2857 23.7905 18.3238 23.8095 18.3619ZM2.91429 24C2.91429 35.5714 12.4286 45.1714 24 45.1714C35.5714 45.1714 45.0857 35.5714 45.1714 24C45.1714 21.5143 44.7429 19.2 43.9714 17.0571L31.6286 41.0571C31.4571 41.4 31.2857 41.6571 30.8571 41.6571C30.4286 41.6571 30.2571 41.4 30.0857 41.0571L24.2571 28.2857C24.2286 28.2571 24.2095 28.219 24.1905 28.181C24.1524 28.1048 24.1143 28.0286 24 28.0286C23.9143 28.0286 23.8286 28.1143 23.7429 28.2857L18 41.0571C17.8286 41.4 17.6571 41.6571 17.2286 41.6571C16.8 41.6571 16.6286 41.4 16.4571 41.0571L4.11429 17.0571C3.34286 19.2857 2.91429 21.6 2.91429 24ZM17.0571 33.9429C16.9429 33.9429 16.9048 33.8667 16.8667 33.7905L16.8666 33.7904C16.8476 33.7524 16.8286 33.7143 16.8 33.6857L6 12.9429C7.88571 9.85714 10.6286 7.28571 13.8 5.48571L21.4286 21.9429C21.6 22.2857 21.7714 22.3714 22.0286 22.3714H25.9714C26.2286 22.3714 26.4 22.2857 26.5714 21.9429L34.1143 5.48571C37.2857 7.28571 40.0286 9.85714 41.9143 12.9429L31.2 33.6857C31.1143 33.8571 31.0286 33.9429 30.9429 33.9429C30.8286 33.9429 30.7905 33.8667 30.7524 33.7905C30.7333 33.7524 30.7143 33.7143 30.6857 33.6857L26.5714 24.6C26.4 24.2571 26.2286 24.1714 25.9714 24.1714H22.0286C21.7714 24.1714 21.6 24.2571 21.4286 24.6L17.3143 33.6857C17.2857 33.7143 17.2667 33.7524 17.2476 33.7905C17.2095 33.8667 17.1714 33.9429 17.0571 33.9429Z" fill="#001E50"/>
</svg>
