<svg width="24" height="31" viewBox="0 0 24 31" fill="none" xmlns="http://www.w3.org/2000/svg">
<path fill-rule="evenodd" clip-rule="evenodd" d="M23.5534 12.1893C23.5534 5.19016 18.9091 0.446777 12.0001 0.446777C5.09109 0.446777 0.446777 5.19016 0.446777 12.1893C0.446777 16.5201 3.65625 22.3413 10.0315 29.7631L10.4742 30.2752L10.618 30.4245C11.3662 31.1269 12.5369 31.1619 13.326 30.4754C13.3965 30.4141 13.4627 30.3479 13.5241 30.2773C20.1958 22.6089 23.5534 16.6182 23.5534 12.1893ZM2.22011 12.1893C2.22011 6.16127 6.07895 2.22011 12.0001 2.22011C17.9213 2.22011 21.7801 6.16127 21.7801 12.1893C21.7801 15.9752 18.743 21.4821 12.6282 28.6021L12.162 29.1376L12.0949 29.1793C11.9995 29.219 11.8855 29.1956 11.8139 29.1134L11.3749 28.6055L10.9432 28.0996C5.11484 21.2228 2.22011 15.8845 2.22011 12.1893ZM12.0001 8.44678C13.9626 8.44678 15.5534 10.0377 15.5534 12.0001C15.5534 13.9626 13.9626 15.5534 12.0001 15.5534C10.0377 15.5534 8.44678 13.9626 8.44678 12.0001C8.44678 10.0377 10.0377 8.44678 12.0001 8.44678ZM10.2201 12.0001C10.2201 11.017 11.017 10.2201 12.0001 10.2201C12.9832 10.2201 13.7801 11.017 13.7801 12.0001C13.7801 12.9832 12.9832 13.7801 12.0001 13.7801C11.017 13.7801 10.2201 12.9832 10.2201 12.0001Z" fill="#001E50"/>
</svg>
