<svg width="30" height="31" viewBox="0 0 30 31" fill="none" xmlns="http://www.w3.org/2000/svg">
<path fill-rule="evenodd" clip-rule="evenodd" d="M22.2799 15.1068C18.2004 15.1068 14.8933 11.7997 14.8933 7.72016C14.8933 3.64062 18.2004 0.333496 22.2799 0.333496C26.3595 0.333496 29.6666 3.64062 29.6666 7.72016C29.6666 9.67923 28.8883 11.5581 27.5031 12.9433C26.1178 14.3286 24.239 15.1068 22.2799 15.1068ZM22.2799 2.10683C19.1798 2.10683 16.6666 4.62 16.6666 7.72016C16.6666 10.8203 19.1798 13.3335 22.2799 13.3335C25.3801 13.3335 27.8933 10.8203 27.8933 7.72016C27.8933 4.62 25.3801 2.10683 22.2799 2.10683ZM17.5733 15.8002C16.7737 17.7894 15.1854 19.3583 13.1866 20.1335C12.5416 20.3758 11.8703 20.5414 11.1866 20.6268C10.7757 20.6849 10.3615 20.7161 9.94659 20.7202C7.16215 20.8116 4.53068 19.4479 2.99992 17.1202H7.85325L8.93325 15.8668L11.1066 13.3202C11.493 12.8616 11.5258 12.2014 11.1866 11.7068C11.1646 11.6639 11.1378 11.6236 11.1066 11.5868L10.0399 10.3335L7.85325 7.78683H2.99992C4.54134 5.47098 7.16569 4.11095 9.94659 4.18683C11.2786 4.18226 12.5934 4.48812 13.7866 5.08016C13.9665 4.52177 14.208 3.98513 14.5066 3.48016C13.0845 2.79549 11.5249 2.44435 9.94659 2.4535C6.17882 2.33189 2.68496 4.41467 0.999919 7.78683C0.716913 8.35327 0.493493 8.94757 0.333252 9.56016H6.99992L8.78659 11.6002L9.51992 12.4535L6.99992 15.3468H0.333252C0.491309 15.9601 0.714814 16.5546 0.999919 17.1202C2.68241 20.4947 6.17795 22.5785 9.94659 22.4535C10.8456 22.4493 11.7409 22.3374 12.6133 22.1202L19.5466 29.0535C20.4243 29.9493 21.6257 30.4542 22.8799 30.4542C24.1341 30.4542 25.3355 29.9493 26.2133 29.0535L26.4799 28.8002C27.3724 27.9206 27.8749 26.7199 27.8749 25.4668C27.8749 24.2138 27.3724 23.0131 26.4799 22.1335L20.4399 16.0935C19.505 15.9269 18.604 15.607 17.7733 15.1468C17.7197 15.2741 17.693 15.3878 17.6679 15.4949C17.643 15.6011 17.6197 15.7006 17.5733 15.8002ZM26.0666 25.4935C26.072 26.2627 25.7695 27.002 25.2266 27.5468L24.9599 27.8002C24.4167 28.3473 23.6776 28.6551 22.9066 28.6551C22.1356 28.6551 21.3965 28.3473 20.8533 27.8002L14.5066 21.4535C16.4175 20.5477 17.9642 19.0199 18.8933 17.1202L25.2266 23.4402C25.7695 23.985 26.072 24.7243 26.0666 25.4935ZM24.3333 25.5068C24.3333 26.2432 23.7363 26.8402 22.9999 26.8402C22.2635 26.8402 21.6666 26.2432 21.6666 25.5068C21.6666 24.7704 22.2635 24.1735 22.9999 24.1735C23.7363 24.1735 24.3333 24.7704 24.3333 25.5068ZM21.7999 11.3868L17.7333 8.04016L18.8666 6.66683L21.6799 8.98683L25.6933 4.98683L26.9466 6.24016L21.7999 11.3868Z" fill="#001E50"/>
</svg>
