<svg width="41" height="40" viewBox="0 0 41 40" fill="none" xmlns="http://www.w3.org/2000/svg">
<path d="M32.0349 15.0895C31.9047 14.6065 31.6503 14.1661 31.297 13.812C30.9437 13.4579 30.5038 13.2025 30.0211 13.0712C28.2314 12.5798 21.0714 12.5718 21.0714 12.5718C21.0714 12.5718 13.9126 12.5638 12.1217 13.0335C11.6393 13.1708 11.2004 13.4298 10.8469 13.7857C10.4935 14.1415 10.2375 14.5822 10.1034 15.0655C9.63143 16.8552 9.62686 20.5672 9.62686 20.5672C9.62686 20.5672 9.62229 24.2975 10.0909 26.0689C10.3537 27.0484 11.1251 27.8221 12.1057 28.0861C13.9137 28.5775 21.0543 28.5855 21.0543 28.5855C21.0543 28.5855 28.2143 28.5935 30.004 28.1249C30.4869 27.9939 30.9271 27.7391 31.2813 27.3857C31.6355 27.0323 31.8913 26.5926 32.0234 26.1101C32.4966 24.3215 32.5 20.6106 32.5 20.6106C32.5 20.6106 32.5229 16.8792 32.0349 15.0895ZM18.7811 24.0061L18.7869 17.1489L24.7377 20.5832L18.7811 24.0061Z" fill="black"/>
<circle cx="20.5" cy="20" r="19.5" stroke="#96A3A8"/>
</svg>
