<svg xmlns="http://www.w3.org/2000/svg" viewBox="0 0 123 123"><defs><style>.cls-1{opacity:0.05;}.cls-2,.cls-3,.cls-4{fill:none;stroke:#fff;stroke-miterlimit:10;}.cls-2{stroke-width:2px;}.cls-3{stroke-linecap:round;}.cls-3,.cls-4{stroke-width:3px;}</style></defs><g id="Ebene_2" data-name="Ebene 2"><g id="Icons"><rect class="cls-1" width="123" height="123"/><path class="cls-2" d="M44.33,67.84a7.61,7.61,0,0,1,.72,1.42c.69,1.51,1.19,2.76,1.57,3.77.14.38.25.69.28.79,1.18,3.35.72,6.85.72,11.18a11.14,11.14,0,0,1-.15,2.68,4.61,4.61,0,0,1-1,2.52.82.82,0,0,1-.42,0c-.49-.11-.66-.65-.72-.79a10.94,10.94,0,0,1-1-4.64C44.33,80,44.05,67.76,44.33,67.84Z"/><path class="cls-2" d="M78.29,67.84a9.06,9.06,0,0,0-.71,1.42C76.88,70.77,76.39,72,76,73c-.14.38-.25.69-.28.79C74.55,77.17,75,80.67,75,85a10.58,10.58,0,0,0,.15,2.68,4.74,4.74,0,0,0,1,2.52.85.85,0,0,0,.43,0c.49-.11.65-.65.72-.79a10.93,10.93,0,0,0,1-4.64C78.29,80,78.58,67.76,78.29,67.84Z"/><path class="cls-2" d="M50.42,51.4l-2.19-7.2c-.65-2.13,1.09-3.91,3.43-4.24a72.07,72.07,0,0,1,10.41-.51,92.54,92.54,0,0,1,9.57.51,3.94,3.94,0,0,1,2.85,1.32,3.14,3.14,0,0,1,.58,2.92l-2.19,7.2a.67.67,0,0,1-.65.46c-3.19-.26-6.09-1-9.24-1a118.22,118.22,0,0,0-11.92,1S50.84,51.85,50.42,51.4Z"/><path class="cls-3" d="M79.18,67.4c.07,10.09.2,6.89.32,19v.46a22.63,22.63,0,0,1-3.31,10.42,2,2,0,0,1-.36.47,3.33,3.33,0,0,1-1.47.78A38.9,38.9,0,0,1,69,99.78c-4.18.35-7.76.32-8.8.31a38.25,38.25,0,0,1-8.81-.78,8.33,8.33,0,0,1-3.3-1.24c-1.45-1.06-1.9-2.45-2.57-5a54.25,54.25,0,0,1-1.46-6.22c-.68-6.5-.43-5.28-.18-18.47"/><path class="cls-3" d="M79.16,46.4c-.07-8.84-.1-12.26,0-13.94A12.25,12.25,0,0,0,79,30a6.41,6.41,0,0,0-.83-2.52,6.85,6.85,0,0,0-1.83-1.87c-2.39-1.72-5.56-2.09-8.81-2.44a52.32,52.32,0,0,0-5.68-.29c-6.6,0-10.63.07-13.85,2.23-.49.33-3.51,2.42-3.85,5.46a4.5,4.5,0,0,0,0,1.15c.21,2,0,6-.14,14.66"/><path class="cls-2" d="M50.8,94.27l.84-4a1,1,0,0,1,1-.78l6.36.91a21.33,21.33,0,0,0,6.48-.08l4.9-.83a1,1,0,0,1,1,.78l.83,4a1.32,1.32,0,0,1-1.36,1.54L69.3,96a58.42,58.42,0,0,1-14.83.08l-2.3-.29A1.32,1.32,0,0,1,50.8,94.27Z"/><path class="cls-4" d="M42.94,48.52l-.89-.67c-1-.78-1.39-1-1.53-1.36a.84.84,0,0,1,.8-1.15c.65,0,1.14.58,2.69,1.47l.49.28"/><path class="cls-2" d="M44.48,46a10.63,10.63,0,0,1-.63,1.6c-.71,1.65-1.34,3-1.87,4-.2.38-.36.69-.42.79-1.79,3.34-4.7,5.36-8,8.35a10.66,10.66,0,0,1-2.1,1.73c-1.43.87-2.36,1-2.5.88a1,1,0,0,1-.26-.37,1.45,1.45,0,0,1,.15-1.17,11.81,11.81,0,0,1,2.88-4.08C35.32,54.4,44.36,45.65,44.48,46Z"/><path class="cls-4" d="M80.06,48.52l.89-.67c1-.78,1.39-1,1.53-1.36a.84.84,0,0,0-.8-1.15c-.65,0-1.14.58-2.69,1.47l-.49.28"/><path class="cls-2" d="M78.52,46a10.63,10.63,0,0,0,.63,1.6c.71,1.65,1.34,3,1.87,4,.2.38.36.69.42.79,1.79,3.34,4.7,5.36,8,8.35a10.66,10.66,0,0,0,2.1,1.73c1.43.87,2.36,1,2.5.88a1,1,0,0,0,.26-.37,1.45,1.45,0,0,0-.15-1.17,11.81,11.81,0,0,0-2.88-4.08C87.68,54.4,78.64,45.65,78.52,46Z"/></g></g></svg>