<svg xmlns="http://www.w3.org/2000/svg" viewBox="0 0 123 123"><defs><style>.cls-1{opacity:0.05;}.cls-2{fill:none;stroke:#fff;stroke-linecap:round;stroke-miterlimit:10;stroke-width:3px;}</style></defs><g id="Ebene_2" data-name="Ebene 2"><g id="Icons"><rect class="cls-1" width="123" height="123"/><line class="cls-2" x1="43.74" y1="63.21" x2="58.33" y2="63.21"/><ellipse class="cls-2" cx="36.71" cy="62.33" rx="3.78" ry="7.23" transform="translate(-33.69 78.99) rotate(-72.82)"/><path class="cls-2" d="M33,50.74c-2.8,0-5.07-.57-5.07-1.27s4.8-1.27,7.61-1.27"/><path class="cls-2" d="M73.55,36.78h6.19A2.4,2.4,0,0,1,81.85,38L93,58.15a6.4,6.4,0,0,1,.82,3.14V81.93a2.42,2.42,0,0,1-2.43,2.42H84.85a2.42,2.42,0,0,1-2.42-2.42v-.87A2.42,2.42,0,0,0,80,78.64H43a2.42,2.42,0,0,0-2.42,2.42v.87a2.42,2.42,0,0,1-2.42,2.42H31.58a2.42,2.42,0,0,1-2.43-2.42V61.29A6.4,6.4,0,0,1,30,58.15L41.15,38a2.4,2.4,0,0,1,2.11-1.25h6.19"/><line class="cls-2" x1="79.26" y1="63.21" x2="64.67" y2="63.21"/><ellipse class="cls-2" cx="86.29" cy="62.33" rx="7.23" ry="3.78" transform="translate(-14.56 28.28) rotate(-17.18)"/><path class="cls-2" d="M90,50.74c2.8,0,5.07-.57,5.07-1.27s-4.8-1.27-7.61-1.27"/><circle class="cls-2" cx="61.5" cy="63.21" r="2.54"/><line class="cls-2" x1="34.86" y1="51.37" x2="88.14" y2="51.37"/><line class="cls-2" x1="61.58" y1="24.13" x2="61.58" y2="43.13"/><line class="cls-2" x1="61.64" y1="43.31" x2="67.3" y2="37.64"/><line class="cls-2" x1="61.2" y1="43.31" x2="55.54" y2="37.64"/></g></g></svg>