<svg xmlns="http://www.w3.org/2000/svg" viewBox="0 0 123 123"><defs><style>.cls-1{opacity:0.05;}.cls-2{fill:none;stroke:#fff;stroke-linecap:round;stroke-miterlimit:10;stroke-width:3px;}</style></defs><g id="Ebene_2" data-name="Ebene 2"><g id="Icons"><rect class="cls-1" width="123" height="123"/><line class="cls-2" x1="29.06" y1="36.12" x2="29.06" y2="86.87"/><line class="cls-2" x1="93.94" y1="36.12" x2="93.94" y2="86.87"/><line class="cls-2" x1="61.67" y1="68.11" x2="61.67" y2="74.57"/><line class="cls-2" x1="61.67" y1="86.49" x2="61.67" y2="94.25"/><line class="cls-2" x1="48.57" y1="48.25" x2="59.19" y2="48.25"/><ellipse class="cls-2" cx="43.45" cy="47.61" rx="2.75" ry="5.26" transform="translate(-14.87 75.05) rotate(-72.82)"/><path class="cls-2" d="M40.71,39.16c-2,0-3.69-.41-3.69-.92s3.5-.93,5.54-.93"/><path class="cls-2" d="M70.28,29h4.5a1.76,1.76,0,0,1,1.54.91l8.15,14.65a4.82,4.82,0,0,1,.59,2.29v15a1.76,1.76,0,0,1-1.77,1.76H78.51a1.76,1.76,0,0,1-1.77-1.76v-.63A1.76,1.76,0,0,0,75,59.49H48a1.76,1.76,0,0,0-1.76,1.76v.63a1.76,1.76,0,0,1-1.77,1.76H39.71a1.76,1.76,0,0,1-1.77-1.76v-15a4.82,4.82,0,0,1,.59-2.29l8.15-14.65A1.76,1.76,0,0,1,48.22,29H70.28Z"/><line class="cls-2" x1="74.43" y1="48.25" x2="63.81" y2="48.25"/><ellipse class="cls-2" cx="79.55" cy="47.61" rx="5.26" ry="2.75" transform="translate(-10.51 25.63) rotate(-17.18)"/><path class="cls-2" d="M82.29,39.16c2,0,3.69-.41,3.69-.92s-3.5-.93-5.54-.93"/><circle class="cls-2" cx="61.5" cy="48.25" r="1.85"/><line class="cls-2" x1="42.1" y1="39.62" x2="80.9" y2="39.62"/></g></g></svg>