<svg xmlns="http://www.w3.org/2000/svg" viewBox="0 0 123 123"><defs><style>.cls-1{opacity:0.05;}.cls-2,.cls-3{fill:none;stroke:#fff;stroke-linecap:round;stroke-miterlimit:10;}.cls-2{stroke-width:2px;}.cls-3{stroke-width:3px;}</style></defs><g id="Layer_2" data-name="Layer 2"><g id="Icons"><rect class="cls-1" width="123" height="123"/><circle class="cls-2" cx="74.36" cy="29.5" r="5.5"/><path class="cls-2" d="M74.36,68V95.5A4.82,4.82,0,0,1,69.79,99c-2.45,0-4.43-1.57-4.43-3.5V49.33"/><path class="cls-2" d="M74.36,68V95.5A4.81,4.81,0,0,0,78.93,99c2.44,0,4.43-1.57,4.43-3.5V49.33"/><path class="cls-2" d="M83.4,49.33l3,16.42a2.5,2.5,0,1,0,4.85-1.22C90.45,54.65,90.32,39,82.7,39.1H66c-7.65-.1-7.7,15.55-8.49,25.43a2.5,2.5,0,1,0,4.85,1.22l3-16.42"/><line class="cls-3" x1="39.57" y1="61.75" x2="39.57" y2="97.78"/><line class="cls-3" x1="39.57" y1="97.78" x2="45.45" y2="92.17"/><line class="cls-3" x1="39.57" y1="97.78" x2="33.68" y2="92.17"/><line class="cls-3" x1="39.57" y1="61.75" x2="39.57" y2="24.84"/><line class="cls-3" x1="39.57" y1="24.67" x2="33.68" y2="30.33"/><line class="cls-3" x1="39.57" y1="24.67" x2="45.45" y2="30.33"/></g></g></svg>