<svg xmlns="http://www.w3.org/2000/svg" viewBox="0 0 123 123"><defs><style>.cls-1{opacity:0.05;}.cls-2{fill:none;stroke:#fff;stroke-miterlimit:10;stroke-width:3px;}</style></defs><g id="Ebene_2" data-name="Ebene 2"><g id="Icons"><rect class="cls-1" width="123" height="123"/><path class="cls-2" d="M46.11,50.65l22.79-1V93.17A3.37,3.37,0,0,0,70,95.88a5.17,5.17,0,0,0,3.42,1h3.45v5.09H46.11V96.84H49.5c1.83,0,3.12-.42,3.86-1.26s1.13-2.3,1.13-4.39V61.5a5.68,5.68,0,0,0-1.62-4.33,6.22,6.22,0,0,0-4.46-1.53h-2.3ZM60.19,21.07a8.68,8.68,0,0,1,6.3,2.6,8.93,8.93,0,0,1,0,12.66A9,9,0,0,1,51.2,30a8.58,8.58,0,0,1,2.63-6.33A8.72,8.72,0,0,1,60.19,21.07Z"/></g></g></svg>