<svg xmlns="http://www.w3.org/2000/svg" viewBox="0 0 123 123"><defs><style>.cls-1{opacity:0.05;}.cls-2,.cls-3,.cls-4{fill:none;stroke:#fff;stroke-miterlimit:10;}.cls-2,.cls-3{stroke-width:3px;}.cls-3,.cls-4{stroke-linecap:round;}.cls-4{stroke-width:2px;}</style></defs><g id="Layer_2" data-name="Layer 2"><g id="Icons"><rect class="cls-1" width="123" height="123"/><circle class="cls-2" cx="43.02" cy="84.66" r="7.36"/><path class="cls-3" d="M24.27,38.75c2.13.17,5.06.63,10.92,1.55,2.7.42,4.33.71,7.12,1,4.47.52,4.85-.16,4.74.52-.47,3.09,2.85,8.81,7.6,11.87,2.18,1.4,4.27,1,4.27,2.06,0,.52-1.9,5.16.48,9.29.62,1.09,1,.79,1.42,2.06a35.59,35.59,0,0,1,1,10.84c-.48,4.13-.78,3.87-1.9,5.68a7.8,7.8,0,0,1-4.07,3,.25.25,0,0,1-.32-.3,11.63,11.63,0,0,0,.12-2C55.42,78.87,50.94,70.74,43,70.74c-7,0-12.58,6.13-12.58,13.68a3,3,0,0,0,.44,1.76s0,0,0,0H18.62"/><path class="cls-3" d="M46.64,41.84c3,.9,9.13-1.58,12.82-5.86,1.69-2,1.62-4.08,2.64-3.94.51.07,5.19,2.3,9.26-.17a6.1,6.1,0,0,1,2.25-1.12"/><rect class="cls-3" x="72.38" y="70.75" width="32" height="21.5" rx="4.62"/><line class="cls-4" x1="78.38" y1="70.75" x2="78.38" y2="92.25"/><line class="cls-4" x1="98.38" y1="70.75" x2="98.38" y2="92.25"/><path class="cls-4" d="M84.38,69.75h0a2.78,2.78,0,0,1,2.5-3h3a2.78,2.78,0,0,1,2.5,3h0"/></g></g></svg>