<svg xmlns="http://www.w3.org/2000/svg" viewBox="0 0 123 123"><defs><style>.cls-1{opacity:0.05;}.cls-2{fill:none;}.cls-2,.cls-3{stroke:#fff;stroke-linecap:round;stroke-linejoin:round;stroke-width:2px;}.cls-3{fill:#fff;}</style></defs><g id="Layer_2" data-name="Layer 2"><g id="Icons"><rect class="cls-1" width="123" height="123"/><line class="cls-2" x1="92.5" y1="80" x2="92.5" y2="87"/><line class="cls-2" x1="84.17" y1="80" x2="84.17" y2="87"/><line class="cls-2" x1="75.83" y1="77" x2="75.83" y2="87"/><line class="cls-2" x1="50.83" y1="77" x2="50.83" y2="87"/><line class="cls-2" x1="67.5" y1="80" x2="67.5" y2="87"/><line class="cls-2" x1="59.17" y1="80" x2="59.17" y2="87"/><line class="cls-2" x1="43.5" y1="81" x2="43.5" y2="87"/><ellipse class="cls-2" cx="52" cy="48.5" rx="23.5" ry="12.5"/><polygon class="cls-3" points="67.5 60 75.5 52 75.5 61 64.5 61 67.5 60"/><path class="cls-2" d="M28.5,49V74.79A7,7,0,0,0,30,79.12,22.61,22.61,0,0,0,42.5,87h56V61h-23V48"/><ellipse class="cls-3" cx="52" cy="48.5" rx="12.22" ry="6.5"/></g></g></svg>